<svg xmlns="http://www.w3.org/2000/svg" width="134" height="86" viewBox="0 0 134 86" version="1.1"><path d="M 72.656 3.288 C 68.274 7.421, 67.115 12.519, 69.295 18.070 C 71.353 23.309, 69.557 23.322, 64.340 18.105 C 60.645 14.410, 52.716 11, 47.818 11 C 45.520 11, 45.378 14.897, 47.526 19.050 L 49.051 22 31.026 22 L 13 22 13 42.500 C 13 55.683, 13.362 63, 14.014 63 C 14.571 63, 15.881 62.467, 16.925 61.815 C 18.387 60.902, 19.729 60.902, 22.777 61.815 C 27.758 63.307, 34.257 63.343, 35.713 61.887 C 36.428 61.172, 38.379 61.032, 41.163 61.496 C 48.688 62.749, 84 63.198, 84 62.041 C 84 60.709, 88.681 60.675, 89.500 62 C 89.881 62.616, 98.344 63, 111.559 63 L 133 63 133 42.500 L 133 22 116.094 22 C 99.810 22, 99.206 21.928, 99.698 20.045 C 100.088 18.555, 99.566 17.929, 97.498 17.410 C 94.274 16.601, 85.047 18.493, 82.384 20.510 C 81.348 21.294, 79.082 21.951, 77.350 21.968 L 74.200 22 77.600 18.600 C 80.448 15.752, 81 14.478, 81 10.749 C 81 5.290, 79.264 0, 77.473 0 C 76.741 0, 74.574 1.480, 72.656 3.288 M 73.656 11.104 C 71.775 16.926, 71.388 21.505, 72.989 19 C 74.132 17.210, 76.360 7.027, 75.743 6.410 C 75.505 6.172, 74.566 8.284, 73.656 11.104 M 54.924 19.364 C 56.258 20.814, 58.058 21.986, 58.924 21.968 C 60.183 21.943, 60.098 21.627, 58.500 20.395 C 57.400 19.547, 55.600 18.375, 54.500 17.791 C 52.821 16.899, 52.890 17.152, 54.924 19.364 M 22.064 34.964 C 20.725 39.895, 19.045 44.153, 18.331 44.426 C 17.618 44.700, 17.286 45.581, 17.594 46.384 C 17.902 47.187, 17.612 48.856, 16.950 50.093 C 15.937 51.986, 16.034 52.552, 17.565 53.671 C 19.976 55.434, 22 55.356, 22 53.500 C 22 51.189, 25.723 48, 28.421 48 C 30.280 48, 30.989 48.674, 31.479 50.906 C 31.922 52.922, 32.902 54.010, 34.677 54.455 C 36.084 54.808, 37.475 54.859, 37.767 54.567 C 38.058 54.275, 37.348 49.866, 36.187 44.768 C 35.026 39.671, 33.815 33.818, 33.495 31.762 C 32.880 27.809, 30.783 26, 26.816 26 C 24.748 26, 24.239 26.961, 22.064 34.964 M 41.222 40.181 L 41.500 54.500 44 54.792 L 46.500 55.084 46.415 40.792 L 46.329 26.500 43.637 26.181 L 40.944 25.862 41.222 40.181 M 104 40.317 L 104 54.767 106.524 55.249 C 107.912 55.515, 109.251 55.402, 109.500 55 C 109.749 54.598, 111.020 54.472, 112.325 54.722 C 117.543 55.719, 121.409 39.409, 117 35 C 114.834 32.834, 112.484 32.407, 111.500 34 C 110.049 36.348, 108.886 34.718, 109.183 30.750 C 109.480 26.766, 109.328 26.480, 106.750 26.184 L 104 25.867 104 40.317 M 122 29.827 C 122 31.772, 123.799 33, 126.651 33 C 127.622 33, 128.028 32.218, 127.820 30.750 C 127.385 27.691, 122 26.836, 122 29.827 M 70.698 33.636 C 70.314 34.019, 70 38.710, 70 44.060 C 70 52.006, 70.289 53.897, 71.582 54.393 C 75.241 55.797, 76 55.101, 76 50.338 C 76 46.814, 76.769 44.477, 79.147 40.771 C 82.033 36.273, 82.161 35.733, 80.694 34.265 C 79.226 32.797, 78.922 32.865, 77.044 35.082 C 75.676 36.698, 75.198 36.919, 75.605 35.750 C 75.940 34.788, 75.753 34, 75.189 34 C 74.625 34, 73.541 33.761, 72.780 33.469 C 72.018 33.177, 71.082 33.252, 70.698 33.636 M 52.750 35.572 C 49.666 37.245, 49.359 38.223, 51.390 39.909 C 52.466 40.802, 53.595 40.581, 56.390 38.932 C 61.035 36.192, 61.137 38.134, 56.499 41 C 50.154 44.922, 48.207 50.067, 51.829 53.345 C 54.335 55.613, 56.593 55.420, 58.443 52.777 C 59.723 50.951, 60 50.862, 60 52.277 C 60 53.810, 62.401 54.560, 64.714 53.750 C 65.107 53.612, 65.294 50.125, 65.129 46 C 64.891 40.048, 64.398 38.036, 62.740 36.250 C 60.341 33.666, 56.717 33.420, 52.750 35.572 M 86.750 35.572 C 83.666 37.245, 83.359 38.223, 85.390 39.909 C 86.466 40.802, 87.595 40.581, 90.390 38.932 C 95.035 36.192, 95.137 38.134, 90.499 41 C 84.154 44.922, 82.207 50.067, 85.829 53.345 C 88.335 55.613, 90.593 55.420, 92.443 52.777 C 93.723 50.951, 94 50.862, 94 52.277 C 94 53.810, 96.401 54.560, 98.714 53.750 C 99.107 53.612, 99.294 50.125, 99.129 46 C 98.891 40.048, 98.398 38.036, 96.740 36.250 C 94.341 33.666, 90.717 33.420, 86.750 35.572 M 122 43.893 C 122 54.110, 122.367 55, 126.582 55 C 128.791 55, 128.634 35.457, 126.418 34.607 C 122.280 33.019, 122 33.607, 122 43.893 M 26.615 39.176 C 25.927 42.615, 26.295 43.554, 27.933 42.541 C 29.218 41.747, 29.357 37.339, 28.122 36.575 C 27.639 36.277, 26.961 37.447, 26.615 39.176 M 112.190 38.580 C 110.341 39.875, 110 41.070, 110 46.257 C 110 50.177, 110.347 52.053, 110.959 51.441 C 112.029 50.371, 115.382 38.049, 114.770 37.436 C 114.555 37.222, 113.394 37.736, 112.190 38.580 M 56.452 46.646 C 54.033 49.257, 53.099 51.675, 54.953 50.529 C 56.281 49.708, 60.274 44, 59.520 44 C 59.182 44, 57.801 45.191, 56.452 46.646 M 90.452 46.646 C 88.033 49.257, 87.099 51.675, 88.953 50.529 C 90.281 49.708, 94.274 44, 93.520 44 C 93.182 44, 91.801 45.191, 90.452 46.646" stroke="none" fill="#548032" fill-rule="evenodd"/><path d="M 22.064 34.964 C 20.725 39.895, 19.045 44.153, 18.331 44.426 C 17.618 44.700, 17.286 45.581, 17.594 46.384 C 17.902 47.187, 17.612 48.856, 16.950 50.093 C 15.937 51.986, 16.034 52.552, 17.565 53.671 C 19.976 55.434, 22 55.356, 22 53.500 C 22 51.189, 25.723 48, 28.421 48 C 30.280 48, 30.989 48.674, 31.479 50.906 C 31.922 52.922, 32.902 54.010, 34.677 54.455 C 36.084 54.808, 37.475 54.859, 37.767 54.567 C 38.058 54.275, 37.348 49.866, 36.187 44.768 C 35.026 39.671, 33.815 33.818, 33.495 31.762 C 32.880 27.809, 30.783 26, 26.816 26 C 24.748 26, 24.239 26.961, 22.064 34.964 M 41.222 40.181 L 41.500 54.500 44 54.792 L 46.500 55.084 46.415 40.792 L 46.329 26.500 43.637 26.181 L 40.944 25.862 41.222 40.181 M 104 40.317 L 104 54.767 106.524 55.249 C 107.912 55.515, 109.251 55.402, 109.500 55 C 109.749 54.598, 111.020 54.472, 112.325 54.722 C 117.543 55.719, 121.409 39.409, 117 35 C 114.834 32.834, 112.484 32.407, 111.500 34 C 110.049 36.348, 108.886 34.718, 109.183 30.750 C 109.480 26.766, 109.328 26.480, 106.750 26.184 L 104 25.867 104 40.317 M 122 29.827 C 122 31.772, 123.799 33, 126.651 33 C 127.622 33, 128.028 32.218, 127.820 30.750 C 127.385 27.691, 122 26.836, 122 29.827 M 70.698 33.636 C 70.314 34.019, 70 38.710, 70 44.060 C 70 52.006, 70.289 53.897, 71.582 54.393 C 75.241 55.797, 76 55.101, 76 50.338 C 76 46.814, 76.769 44.477, 79.147 40.771 C 82.033 36.273, 82.161 35.733, 80.694 34.265 C 79.226 32.797, 78.922 32.865, 77.044 35.082 C 75.676 36.698, 75.198 36.919, 75.605 35.750 C 75.940 34.788, 75.753 34, 75.189 34 C 74.625 34, 73.541 33.761, 72.780 33.469 C 72.018 33.177, 71.082 33.252, 70.698 33.636 M 52.750 35.572 C 49.666 37.245, 49.359 38.223, 51.390 39.909 C 52.466 40.802, 53.595 40.581, 56.390 38.932 C 61.035 36.192, 61.137 38.134, 56.499 41 C 50.154 44.922, 48.207 50.067, 51.829 53.345 C 54.335 55.613, 56.593 55.420, 58.443 52.777 C 59.723 50.951, 60 50.862, 60 52.277 C 60 53.810, 62.401 54.560, 64.714 53.750 C 65.107 53.612, 65.294 50.125, 65.129 46 C 64.891 40.048, 64.398 38.036, 62.740 36.250 C 60.341 33.666, 56.717 33.420, 52.750 35.572 M 86.750 35.572 C 83.666 37.245, 83.359 38.223, 85.390 39.909 C 86.466 40.802, 87.595 40.581, 90.390 38.932 C 95.035 36.192, 95.137 38.134, 90.499 41 C 84.154 44.922, 82.207 50.067, 85.829 53.345 C 88.335 55.613, 90.593 55.420, 92.443 52.777 C 93.723 50.951, 94 50.862, 94 52.277 C 94 53.810, 96.401 54.560, 98.714 53.750 C 99.107 53.612, 99.294 50.125, 99.129 46 C 98.891 40.048, 98.398 38.036, 96.740 36.250 C 94.341 33.666, 90.717 33.420, 86.750 35.572 M 122 43.893 C 122 54.110, 122.367 55, 126.582 55 C 128.791 55, 128.634 35.457, 126.418 34.607 C 122.280 33.019, 122 33.607, 122 43.893 M 26.615 39.176 C 25.927 42.615, 26.295 43.554, 27.933 42.541 C 29.218 41.747, 29.357 37.339, 28.122 36.575 C 27.639 36.277, 26.961 37.447, 26.615 39.176 M 112.190 38.580 C 110.341 39.875, 110 41.070, 110 46.257 C 110 50.177, 110.347 52.053, 110.959 51.441 C 112.029 50.371, 115.382 38.049, 114.770 37.436 C 114.555 37.222, 113.394 37.736, 112.190 38.580 M 56.452 46.646 C 54.033 49.257, 53.099 51.675, 54.953 50.529 C 56.281 49.708, 60.274 44, 59.520 44 C 59.182 44, 57.801 45.191, 56.452 46.646 M 90.452 46.646 C 88.033 49.257, 87.099 51.675, 88.953 50.529 C 90.281 49.708, 94.274 44, 93.520 44 C 93.182 44, 91.801 45.191, 90.452 46.646 M 16.667 61.667 C 16.300 62.033, 16 63.819, 16 65.635 C 16 68.367, 15.698 68.821, 14.253 68.267 C 12.590 67.629, 12.590 67.725, 14.253 70.263 C 16.413 73.559, 16.552 78.851, 14.500 79.638 C 13.675 79.955, 13 80.616, 13 81.107 C 13 81.598, 13.675 82, 14.500 82 C 15.325 82, 16 82.838, 16 83.862 C 16 85.552, 16.938 85.730, 26.114 85.784 C 35.277 85.838, 36.275 85.663, 36.731 83.922 C 37.395 81.382, 40 81.444, 40 84 C 40 85.556, 40.667 86, 43 86 C 45.533 86, 46 85.611, 46 83.500 C 46 81.729, 46.543 81, 47.861 81 C 49.308 81, 49.616 81.558, 49.245 83.500 L 48.767 86 57.383 86 L 66 86 66 79.539 C 66 74.134, 65.632 72.731, 63.750 70.957 C 59.853 67.284, 58.649 67.030, 54.322 68.967 C 48.994 71.353, 48.462 72.432, 51.457 74.787 C 54.425 77.122, 53.828 78, 49.268 78 L 45.869 78 46.092 70.378 C 46.346 61.692, 45.579 60.665, 39.233 61.191 C 35.968 61.461, 35.350 61.939, 34.306 65 C 33.405 67.643, 33.099 67.949, 33.056 66.250 C 33.017 64.685, 32.391 64, 31 64 C 29.436 64, 28.972 64.709, 28.874 67.250 L 28.747 70.500 27.707 66.790 C 26.929 64.016, 25.914 62.817, 23.684 62.040 C 20.258 60.845, 17.628 60.706, 16.667 61.667 M 84 73.434 L 84 86 87 86 C 89.125 86, 90 85.517, 90 84.345 C 90 82.805, 90.127 82.805, 91.829 84.345 C 92.840 85.260, 95.319 86, 97.376 86 L 101.094 86 97.865 81.982 C 95.943 79.590, 95.013 77.623, 95.568 77.121 C 96.859 75.953, 102.788 77.716, 102.731 79.250 C 102.482 85.949, 102.534 86, 109.531 86 C 114.670 86, 116.197 85.649, 116.694 84.355 C 117.082 83.344, 116.588 82.151, 115.412 81.258 C 113.657 79.924, 113.778 79.863, 116.901 80.515 L 120.302 81.225 118.151 77.745 C 116.968 75.830, 116 73.509, 116 72.585 C 116 71.046, 116.204 71.055, 118.469 72.703 C 120.591 74.248, 120.942 75.307, 120.969 80.250 C 121 85.965, 121.018 86, 124 86 L 127 86 127 80 C 127 75.443, 127.346 74, 128.441 74 C 130.748 74, 131.044 72.507, 129.245 69.939 C 128.325 68.626, 127.556 66.640, 127.536 65.526 C 127.509 63.981, 126.729 63.426, 124.250 63.187 C 121.316 62.904, 121 63.133, 121 65.544 C 121 67.700, 120.663 68.073, 119.250 67.479 C 115.582 65.938, 102.338 63.067, 98.750 63.034 C 95.623 63.006, 95 63.341, 95 65.053 C 95 66.182, 93.898 68.727, 92.552 70.709 L 90.104 74.312 89.802 67.906 C 89.512 61.747, 89.394 61.488, 86.750 61.184 L 84 60.867 84 73.434 M 69.453 67.942 C 68.929 68.464, 68.646 72.740, 68.823 77.445 L 69.147 86 72.073 86 C 74.496 86, 75 85.587, 75 83.600 C 75 82.281, 76.597 78.828, 78.549 75.927 L 82.098 70.653 79.991 68.577 C 77.976 66.590, 77.826 66.578, 76.543 68.303 C 75.806 69.295, 75.044 69.692, 74.851 69.185 C 74.306 67.756, 70.517 66.884, 69.453 67.942 M 38.769 74.956 C 38.078 77.417, 38.491 78.842, 39.581 77.753 C 39.900 77.433, 40.004 76.121, 39.810 74.836 L 39.459 72.500 38.769 74.956 M 55.405 75.155 C 54.962 75.870, 55.130 76.038, 55.845 75.595 C 56.480 75.203, 57 74.684, 57 74.441 C 57 73.607, 56.117 74.002, 55.405 75.155 M 55.872 82.750 C 54.629 84.336, 54.664 84.371, 56.250 83.128 C 57.916 81.821, 58.445 81, 57.622 81 C 57.415 81, 56.627 81.787, 55.872 82.750 M 108.710 83 C 109.338 85.401, 110.559 85.592, 111.393 83.418 C 112.270 81.133, 112.198 81, 110.094 81 C 108.680 81, 108.322 81.517, 108.710 83" stroke="none" fill="#f9f9f7" fill-rule="evenodd"/></svg>